<svg id="visual" viewBox="0 0 1920 1080" width="1920" height="1080" xmlns="http://www.w3.org/2000/svg" xmlns:xlink="http://www.w3.org/1999/xlink" version="1.1"><rect x="0" y="0" width="1920" height="1080" fill="#ebe7c0"></rect><defs><linearGradient id="grad1_0" x1="43.8%" y1="0%" x2="100%" y2="100%"><stop offset="14.444444444444446%" stop-color="#015946" stop-opacity="1"></stop><stop offset="85.55555555555554%" stop-color="#015946" stop-opacity="1"></stop></linearGradient></defs><defs><linearGradient id="grad1_1" x1="43.8%" y1="0%" x2="100%" y2="100%"><stop offset="14.444444444444446%" stop-color="#015946" stop-opacity="1"></stop><stop offset="85.55555555555554%" stop-color="#316d53" stop-opacity="1"></stop></linearGradient></defs><defs><linearGradient id="grad1_2" x1="43.8%" y1="0%" x2="100%" y2="100%"><stop offset="14.444444444444446%" stop-color="#528060" stop-opacity="1"></stop><stop offset="85.55555555555554%" stop-color="#316d53" stop-opacity="1"></stop></linearGradient></defs><defs><linearGradient id="grad1_3" x1="43.8%" y1="0%" x2="100%" y2="100%"><stop offset="14.444444444444446%" stop-color="#528060" stop-opacity="1"></stop><stop offset="85.55555555555554%" stop-color="#719470" stop-opacity="1"></stop></linearGradient></defs><defs><linearGradient id="grad1_4" x1="43.8%" y1="0%" x2="100%" y2="100%"><stop offset="14.444444444444446%" stop-color="#8fa881" stop-opacity="1"></stop><stop offset="85.55555555555554%" stop-color="#719470" stop-opacity="1"></stop></linearGradient></defs><defs><linearGradient id="grad1_5" x1="43.8%" y1="0%" x2="100%" y2="100%"><stop offset="14.444444444444446%" stop-color="#8fa881" stop-opacity="1"></stop><stop offset="85.55555555555554%" stop-color="#aebd94" stop-opacity="1"></stop></linearGradient></defs><defs><linearGradient id="grad1_6" x1="43.8%" y1="0%" x2="100%" y2="100%"><stop offset="14.444444444444446%" stop-color="#cdd2a9" stop-opacity="1"></stop><stop offset="85.55555555555554%" stop-color="#aebd94" stop-opacity="1"></stop></linearGradient></defs><defs><linearGradient id="grad1_7" x1="43.8%" y1="0%" x2="100%" y2="100%"><stop offset="14.444444444444446%" stop-color="#cdd2a9" stop-opacity="1"></stop><stop offset="85.55555555555554%" stop-color="#ebe7c0" stop-opacity="1"></stop></linearGradient></defs><defs><linearGradient id="grad2_0" x1="0%" y1="0%" x2="56.3%" y2="100%"><stop offset="14.444444444444446%" stop-color="#015946" stop-opacity="1"></stop><stop offset="85.55555555555554%" stop-color="#015946" stop-opacity="1"></stop></linearGradient></defs><defs><linearGradient id="grad2_1" x1="0%" y1="0%" x2="56.3%" y2="100%"><stop offset="14.444444444444446%" stop-color="#316d53" stop-opacity="1"></stop><stop offset="85.55555555555554%" stop-color="#015946" stop-opacity="1"></stop></linearGradient></defs><defs><linearGradient id="grad2_2" x1="0%" y1="0%" x2="56.3%" y2="100%"><stop offset="14.444444444444446%" stop-color="#316d53" stop-opacity="1"></stop><stop offset="85.55555555555554%" stop-color="#528060" stop-opacity="1"></stop></linearGradient></defs><defs><linearGradient id="grad2_3" x1="0%" y1="0%" x2="56.3%" y2="100%"><stop offset="14.444444444444446%" stop-color="#719470" stop-opacity="1"></stop><stop offset="85.55555555555554%" stop-color="#528060" stop-opacity="1"></stop></linearGradient></defs><defs><linearGradient id="grad2_4" x1="0%" y1="0%" x2="56.3%" y2="100%"><stop offset="14.444444444444446%" stop-color="#719470" stop-opacity="1"></stop><stop offset="85.55555555555554%" stop-color="#8fa881" stop-opacity="1"></stop></linearGradient></defs><defs><linearGradient id="grad2_5" x1="0%" y1="0%" x2="56.3%" y2="100%"><stop offset="14.444444444444446%" stop-color="#aebd94" stop-opacity="1"></stop><stop offset="85.55555555555554%" stop-color="#8fa881" stop-opacity="1"></stop></linearGradient></defs><defs><linearGradient id="grad2_6" x1="0%" y1="0%" x2="56.3%" y2="100%"><stop offset="14.444444444444446%" stop-color="#aebd94" stop-opacity="1"></stop><stop offset="85.55555555555554%" stop-color="#cdd2a9" stop-opacity="1"></stop></linearGradient></defs><defs><linearGradient id="grad2_7" x1="0%" y1="0%" x2="56.3%" y2="100%"><stop offset="14.444444444444446%" stop-color="#ebe7c0" stop-opacity="1"></stop><stop offset="85.55555555555554%" stop-color="#cdd2a9" stop-opacity="1"></stop></linearGradient></defs><g transform="translate(1920, 0)"><path d="M0 1080C-92.8 995.4 -185.5 910.8 -284.6 875.9C-383.7 841.1 -489 856.1 -603.1 830.1C-717.1 804 -839.9 737.1 -873.7 634.8C-907.6 532.6 -852.6 395 -872.1 283.4C-891.7 171.7 -985.8 85.8 -1080 0L0 0Z" fill="#dcdcb4"></path><path d="M0 945C-81.2 871 -162.4 796.9 -249 766.4C-335.7 736 -427.9 749.1 -527.7 726.3C-627.5 703.5 -734.9 644.9 -764.5 555.5C-794.1 466 -746 345.7 -763.1 247.9C-780.2 150.2 -862.6 75.1 -945 0L0 0Z" fill="#bdc79f"></path><path d="M0 810C-69.6 746.5 -139.2 683.1 -213.5 656.9C-287.7 630.8 -366.8 642 -452.3 622.5C-537.8 603 -629.9 552.8 -655.3 476.1C-680.7 399.4 -639.4 296.3 -654.1 212.5C-668.8 128.8 -739.4 64.4 -810 0L0 0Z" fill="#9fb38a"></path><path d="M0 675C-58 622.1 -116 569.2 -177.9 547.5C-239.8 525.7 -305.6 535 -376.9 518.8C-448.2 502.5 -524.9 460.7 -546.1 396.8C-567.2 332.8 -532.8 246.9 -545.1 177.1C-557.3 107.3 -616.1 53.7 -675 0L0 0Z" fill="#809e78"></path><path d="M0 540C-46.4 497.7 -92.8 455.4 -142.3 438C-191.8 420.5 -244.5 428 -301.5 415C-358.6 402 -419.9 368.5 -436.9 317.4C-453.8 266.3 -426.3 197.5 -436.1 141.7C-445.8 85.8 -492.9 42.9 -540 0L0 0Z" fill="#618a68"></path><path d="M0 405C-34.8 373.3 -69.6 341.5 -106.7 328.5C-143.9 315.4 -183.4 321 -226.2 311.3C-268.9 301.5 -315 276.4 -327.7 238.1C-340.3 199.7 -319.7 148.1 -327 106.3C-334.4 64.4 -369.7 32.2 -405 0L0 0Z" fill="#427659"></path><path d="M0 270C-23.2 248.8 -46.4 227.7 -71.2 219C-95.9 210.3 -122.3 214 -150.8 207.5C-179.3 201 -210 184.3 -218.4 158.7C-226.9 133.1 -213.1 98.8 -218 70.8C-222.9 42.9 -246.5 21.5 -270 0L0 0Z" fill="#1f634c"></path><path d="M0 135C-11.6 124.4 -23.2 113.8 -35.6 109.5C-48 105.1 -61.1 107 -75.4 103.8C-89.6 100.5 -105 92.1 -109.2 79.4C-113.4 66.6 -106.6 49.4 -109 35.4C-111.5 21.5 -123.2 10.7 -135 0L0 0Z" fill="#015946"></path></g><g transform="translate(0, 1080)"><path d="M0 -1080C84.6 -968.3 169.2 -856.5 267.6 -823.6C366.1 -790.7 478.4 -836.6 599 -824.4C719.5 -812.2 848.4 -741.8 873.7 -634.8C899 -527.8 820.8 -384.2 837.9 -272.2C855 -160.3 967.5 -80.2 1080 0L0 0Z" fill="#dcdcb4"></path><path d="M0 -945C74 -847.2 148 -749.5 234.2 -720.7C320.3 -691.9 418.6 -732 524.1 -721.3C629.6 -710.6 742.4 -649.1 764.5 -555.5C786.7 -461.8 718.2 -336.1 733.1 -238.2C748.1 -140.3 846.6 -70.1 945 0L0 0Z" fill="#bdc79f"></path><path d="M0 -810C63.4 -726.2 126.9 -642.4 200.7 -617.7C274.5 -593 358.8 -627.5 449.2 -618.3C539.7 -609.1 636.3 -556.4 655.3 -476.1C674.3 -395.9 615.6 -288.1 628.4 -204.2C641.2 -120.3 725.6 -60.1 810 0L0 0Z" fill="#9fb38a"></path><path d="M0 -675C52.9 -605.2 105.7 -535.3 167.3 -514.8C228.8 -494.2 299 -522.9 374.3 -515.2C449.7 -507.6 530.3 -463.6 546.1 -396.8C561.9 -329.9 513 -240.1 523.7 -170.2C534.4 -100.2 604.7 -50.1 675 0L0 0Z" fill="#809e78"></path><path d="M0 -540C42.3 -484.1 84.6 -428.3 133.8 -411.8C183 -395.4 239.2 -418.3 299.5 -412.2C359.8 -406.1 424.2 -370.9 436.9 -317.4C449.5 -263.9 410.4 -192.1 418.9 -136.1C427.5 -80.2 483.7 -40.1 540 0L0 0Z" fill="#618a68"></path><path d="M0 -405C31.7 -363.1 63.4 -321.2 100.4 -308.9C137.3 -296.5 179.4 -313.7 224.6 -309.1C269.8 -304.6 318.2 -278.2 327.7 -238.1C337.1 -197.9 307.8 -144.1 314.2 -102.1C320.6 -60.1 362.8 -30.1 405 0L0 0Z" fill="#427659"></path><path d="M0 -270C21.1 -242.1 42.3 -214.1 66.9 -205.9C91.5 -197.7 119.6 -209.2 149.7 -206.1C179.9 -203 212.1 -185.5 218.4 -158.7C224.8 -132 205.2 -96 209.5 -68.1C213.7 -40.1 241.9 -20 270 0L0 0Z" fill="#1f634c"></path><path d="M0 -135C10.6 -121 21.1 -107.1 33.5 -103C45.8 -98.8 59.8 -104.6 74.9 -103C89.9 -101.5 106.1 -92.7 109.2 -79.4C112.4 -66 102.6 -48 104.7 -34C106.9 -20 120.9 -10 135 0L0 0Z" fill="#015946"></path></g></svg>