<svg id="visual" viewBox="0 0 540 960" width="540" height="960" xmlns="http://www.w3.org/2000/svg" xmlns:xlink="http://www.w3.org/1999/xlink" version="1.1"><rect x="0" y="0" width="540" height="960" fill="#ebe7ac"></rect><defs><linearGradient id="grad1_0" x1="0%" y1="0%" x2="100%" y2="100%"><stop offset="30%" stop-color="#009473" stop-opacity="1"></stop><stop offset="70%" stop-color="#009473" stop-opacity="1"></stop></linearGradient></defs><defs><linearGradient id="grad1_1" x1="0%" y1="0%" x2="100%" y2="100%"><stop offset="30%" stop-color="#009473" stop-opacity="1"></stop><stop offset="70%" stop-color="#51a577" stop-opacity="1"></stop></linearGradient></defs><defs><linearGradient id="grad1_2" x1="0%" y1="0%" x2="100%" y2="100%"><stop offset="30%" stop-color="#7cb67e" stop-opacity="1"></stop><stop offset="70%" stop-color="#51a577" stop-opacity="1"></stop></linearGradient></defs><defs><linearGradient id="grad1_3" x1="0%" y1="0%" x2="100%" y2="100%"><stop offset="30%" stop-color="#7cb67e" stop-opacity="1"></stop><stop offset="70%" stop-color="#a3c68a" stop-opacity="1"></stop></linearGradient></defs><defs><linearGradient id="grad1_4" x1="0%" y1="0%" x2="100%" y2="100%"><stop offset="30%" stop-color="#c8d799" stop-opacity="1"></stop><stop offset="70%" stop-color="#a3c68a" stop-opacity="1"></stop></linearGradient></defs><defs><linearGradient id="grad1_5" x1="0%" y1="0%" x2="100%" y2="100%"><stop offset="30%" stop-color="#c8d799" stop-opacity="1"></stop><stop offset="70%" stop-color="#ebe7ac" stop-opacity="1"></stop></linearGradient></defs><defs><linearGradient id="grad2_0" x1="0%" y1="0%" x2="100%" y2="100%"><stop offset="30%" stop-color="#009473" stop-opacity="1"></stop><stop offset="70%" stop-color="#009473" stop-opacity="1"></stop></linearGradient></defs><defs><linearGradient id="grad2_1" x1="0%" y1="0%" x2="100%" y2="100%"><stop offset="30%" stop-color="#51a577" stop-opacity="1"></stop><stop offset="70%" stop-color="#009473" stop-opacity="1"></stop></linearGradient></defs><defs><linearGradient id="grad2_2" x1="0%" y1="0%" x2="100%" y2="100%"><stop offset="30%" stop-color="#51a577" stop-opacity="1"></stop><stop offset="70%" stop-color="#7cb67e" stop-opacity="1"></stop></linearGradient></defs><defs><linearGradient id="grad2_3" x1="0%" y1="0%" x2="100%" y2="100%"><stop offset="30%" stop-color="#a3c68a" stop-opacity="1"></stop><stop offset="70%" stop-color="#7cb67e" stop-opacity="1"></stop></linearGradient></defs><defs><linearGradient id="grad2_4" x1="0%" y1="0%" x2="100%" y2="100%"><stop offset="30%" stop-color="#a3c68a" stop-opacity="1"></stop><stop offset="70%" stop-color="#c8d799" stop-opacity="1"></stop></linearGradient></defs><defs><linearGradient id="grad2_5" x1="0%" y1="0%" x2="100%" y2="100%"><stop offset="30%" stop-color="#ebe7ac" stop-opacity="1"></stop><stop offset="70%" stop-color="#c8d799" stop-opacity="1"></stop></linearGradient></defs><g transform="translate(540, 0)"><path d="M0 486C-28.6 470.8 -57.2 455.6 -89.9 452.1C-122.6 448.7 -159.4 456.9 -180.6 436.1C-201.8 415.2 -207.4 365.3 -229.5 343.4C-251.5 321.5 -290 327.5 -317.5 317.5C-345 307.5 -361.4 281.3 -386.6 258.3C-411.9 235.4 -446.1 215.6 -449 186C-452 156.4 -423.7 117.1 -424.7 84.5C-425.6 51.9 -455.8 25.9 -486 0L0 0Z" fill="#dadfa2"></path><path d="M0 405C-23.8 392.3 -47.7 379.7 -74.9 376.8C-102.2 373.9 -132.9 380.8 -150.5 363.4C-168.2 346 -172.8 304.4 -191.2 286.2C-209.6 267.9 -241.7 272.9 -264.6 264.6C-287.5 256.2 -301.1 234.4 -322.2 215.3C-343.3 196.1 -371.7 179.6 -374.2 155C-376.6 130.3 -353.1 97.6 -353.9 70.4C-354.7 43.2 -379.9 21.6 -405 0L0 0Z" fill="#b6cf91"></path><path d="M0 324C-19.1 313.9 -38.2 303.7 -60 301.4C-81.8 299.1 -106.3 304.6 -120.4 290.7C-134.5 276.8 -138.3 243.5 -153 228.9C-167.7 214.3 -193.4 218.4 -211.7 211.7C-230 205 -240.9 187.5 -257.8 172.2C-274.6 156.9 -297.4 143.7 -299.3 124C-301.3 104.3 -282.5 78.1 -283.1 56.3C-283.8 34.6 -303.9 17.3 -324 0L0 0Z" fill="#90be83"></path><path d="M0 243C-14.3 235.4 -28.6 227.8 -45 226.1C-61.3 224.3 -79.7 228.5 -90.3 218C-100.9 207.6 -103.7 182.7 -114.7 171.7C-125.8 160.7 -145 163.8 -158.7 158.7C-172.5 153.7 -180.7 140.7 -193.3 129.2C-206 117.7 -223 107.8 -224.5 93C-226 78.2 -211.9 58.5 -212.3 42.2C-212.8 25.9 -227.9 13 -243 0L0 0Z" fill="#67ae7a"></path><path d="M0 162C-9.5 156.9 -19.1 151.9 -30 150.7C-40.9 149.6 -53.1 152.3 -60.2 145.4C-67.3 138.4 -69.1 121.8 -76.5 114.5C-83.8 107.2 -96.7 109.2 -105.8 105.8C-115 102.5 -120.5 93.8 -128.9 86.1C-137.3 78.5 -148.7 71.9 -149.7 62C-150.7 52.1 -141.2 39 -141.6 28.2C-141.9 17.3 -151.9 8.6 -162 0L0 0Z" fill="#359d75"></path><path d="M0 81C-4.8 78.5 -9.5 75.9 -15 75.4C-20.4 74.8 -26.6 76.2 -30.1 72.7C-33.6 69.2 -34.6 60.9 -38.2 57.2C-41.9 53.6 -48.3 54.6 -52.9 52.9C-57.5 51.2 -60.2 46.9 -64.4 43.1C-68.7 39.2 -74.3 35.9 -74.8 31C-75.3 26.1 -70.6 19.5 -70.8 14.1C-70.9 8.6 -76 4.3 -81 0L0 0Z" fill="#009473"></path></g><g transform="translate(0, 960)"><path d="M0 -486C27.2 -454 54.3 -422 81 -407C107.6 -392.1 133.8 -394.2 163 -393.6C192.2 -392.9 224.5 -389.4 252.8 -378.3C281 -367.2 305.3 -348.6 325.3 -325.3C345.2 -302 360.9 -274 365.8 -244.5C370.8 -214.9 365 -183.6 386.2 -160C407.4 -136.3 455.5 -120.2 476.7 -94.8C497.8 -69.4 491.9 -34.7 486 0L0 0Z" fill="#dadfa2"></path><path d="M0 -405C22.6 -378.3 45.3 -351.6 67.5 -339.2C89.7 -326.7 111.5 -328.5 135.9 -328C160.2 -327.4 187.1 -324.5 210.7 -315.3C234.2 -306 254.4 -290.5 271.1 -271.1C287.7 -251.6 300.8 -228.4 304.9 -203.7C309 -179.1 304.2 -153 321.8 -133.3C339.5 -113.6 379.6 -100.2 397.2 -79C414.8 -57.8 409.9 -28.9 405 0L0 0Z" fill="#b6cf91"></path><path d="M0 -324C18.1 -302.7 36.2 -281.3 54 -271.4C71.7 -261.4 89.2 -262.8 108.7 -262.4C128.2 -261.9 149.7 -259.6 168.5 -252.2C187.4 -244.8 203.5 -232.4 216.8 -216.8C230.2 -201.3 240.6 -182.7 243.9 -163C247.2 -143.2 243.3 -122.4 257.5 -106.6C271.6 -90.9 303.7 -80.1 317.8 -63.2C331.9 -46.3 327.9 -23.1 324 0L0 0Z" fill="#90be83"></path><path d="M0 -243C13.6 -227 27.2 -211 40.5 -203.5C53.8 -196 66.9 -197.1 81.5 -196.8C96.1 -196.4 112.3 -194.7 126.4 -189.2C140.5 -183.6 152.7 -174.3 162.6 -162.6C172.6 -151 180.5 -137 182.9 -122.2C185.4 -107.4 182.5 -91.8 193.1 -80C203.7 -68.1 227.8 -60.1 238.3 -47.4C248.9 -34.7 245.9 -17.4 243 0L0 0Z" fill="#67ae7a"></path><path d="M0 -162C9.1 -151.3 18.1 -140.7 27 -135.7C35.9 -130.7 44.6 -131.4 54.3 -131.2C64.1 -131 74.8 -129.8 84.3 -126.1C93.7 -122.4 101.8 -116.2 108.4 -108.4C115.1 -100.7 120.3 -91.3 121.9 -81.5C123.6 -71.6 121.7 -61.2 128.7 -53.3C135.8 -45.4 151.8 -40.1 158.9 -31.6C165.9 -23.1 164 -11.6 162 0L0 0Z" fill="#359d75"></path><path d="M0 -81C4.5 -75.7 9.1 -70.3 13.5 -67.8C17.9 -65.3 22.3 -65.7 27.2 -65.6C32 -65.5 37.4 -64.9 42.1 -63.1C46.8 -61.2 50.9 -58.1 54.2 -54.2C57.5 -50.3 60.2 -45.7 61 -40.7C61.8 -35.8 60.8 -30.6 64.4 -26.7C67.9 -22.7 75.9 -20 79.4 -15.8C83 -11.6 82 -5.8 81 0L0 0Z" fill="#009473"></path></g></svg>