<svg id="visual" viewBox="0 0 960 540" width="960" height="540" xmlns="http://www.w3.org/2000/svg" xmlns:xlink="http://www.w3.org/1999/xlink" version="1.1">
<rect x="0" y="0" width="960" height="540" fill="#f1f1be"></rect>
<defs>
    <linearGradient id="grad1_0" x1="43.8%" y1="0%" x2="100%" y2="100%">
        <stop offset="14.444444444444446%" stop-color="#009473" stop-opacity="1"></stop>
        <stop offset="85.55555555555554%" stop-color="#009473" stop-opacity="1"></stop>
    </linearGradient>
</defs>
<defs>
    <linearGradient id="grad1_1" x1="43.8%" y1="0%" x2="100%" y2="100%">
        <stop offset="14.444444444444446%" stop-color="#009473" stop-opacity="1"></stop>
        <stop offset="85.55555555555554%" stop-color="#4ba479" stop-opacity="1"></stop>
    </linearGradient>
</defs>
<defs>
    <linearGradient id="grad1_2" x1="43.8%" y1="0%" x2="100%" y2="100%">
        <stop offset="14.444444444444446%" stop-color="#72b381" stop-opacity="1"></stop>
        <stop offset="85.55555555555554%" stop-color="#4ba479" stop-opacity="1"></stop>
    </linearGradient>
</defs>
<defs>
    <linearGradient id="grad1_3" x1="43.8%" y1="0%" x2="100%" y2="100%">
        <stop offset="14.444444444444446%" stop-color="#72b381" stop-opacity="1"></stop>
        <stop offset="85.55555555555554%" stop-color="#95c38c" stop-opacity="1"></stop>
    </linearGradient>
</defs>
<defs>
    <linearGradient id="grad1_4" x1="43.8%" y1="0%" x2="100%" y2="100%">
    <stop offset="14.444444444444446%" stop-color="#b5d29a" stop-opacity="1"></stop>
    <stop offset="85.55555555555554%" stop-color="#95c38c" stop-opacity="1"></stop>
    </linearGradient>
</defs>
<defs>
    <linearGradient id="grad1_5" x1="43.8%" y1="0%" x2="100%" y2="100%">
        <stop offset="14.444444444444446%" stop-color="#b5d29a" stop-opacity="1"></stop>
        <stop offset="85.55555555555554%" stop-color="#d4e1ab" stop-opacity="1"></stop>
    </linearGradient>
</defs>
<defs>
    <linearGradient id="grad1_6" x1="43.8%" y1="0%" x2="100%" y2="100%">
        <stop offset="14.444444444444446%" stop-color="#f1f1be" stop-opacity="1"></stop>
        <stop offset="85.55555555555554%" stop-color="#d4e1ab" stop-opacity="1"></stop>
    </linearGradient>
</defs>
<defs>
    <linearGradient id="grad1_7" x1="43.8%" y1="0%" x2="100%" y2="100%">
        <stop offset="14.444444444444446%" stop-color="#f1f1be" stop-opacity="1"></stop>
        <stop offset="85.55555555555554%" stop-color="#d4e1ab" stop-opacity="1"></stop>
    </linearGradient>
</defs>
<defs>
    <linearGradient id="grad2_0" x1="0%" y1="0%" x2="56.3%" y2="100%">
        <stop offset="14.444444444444446%" stop-color="#009473" stop-opacity="1"></stop>
        <stop offset="85.55555555555554%" stop-color="#009473" stop-opacity="1"></stop>
    </linearGradient>
</defs>
<defs>
    <linearGradient id="grad2_1" x1="0%" y1="0%" x2="56.3%" y2="100%">
        <stop offset="14.444444444444446%" stop-color="#4ba479" stop-opacity="1"></stop>
        <stop offset="85.55555555555554%" stop-color="#009473" stop-opacity="1"></stop>
        </linearGradient>
</defs>
<defs>
    <linearGradient id="grad2_2" x1="0%" y1="0%" x2="56.3%" y2="100%">
        <stop offset="14.444444444444446%" stop-color="#4ba479" stop-opacity="1"></stop>
        <stop offset="85.55555555555554%" stop-color="#72b381" stop-opacity="1"></stop>
    </linearGradient>
</defs>
<defs>
    <linearGradient id="grad2_3" x1="0%" y1="0%" x2="56.3%" y2="100%">
        <stop offset="14.444444444444446%" stop-color="#95c38c" stop-opacity="1"></stop>
        <stop offset="85.55555555555554%" stop-color="#72b381" stop-opacity="1"></stop>
    </linearGradient>
</defs>
<defs>
    <linearGradient id="grad2_4" x1="0%" y1="0%" x2="56.3%" y2="100%">
        <stop offset="14.444444444444446%" stop-color="#95c38c" stop-opacity="1"></stop>
        <stop offset="85.55555555555554%" stop-color="#b5d29a" stop-opacity="1"></stop>
    </linearGradient>
</defs>
<defs>
    <linearGradient id="grad2_5" x1="0%" y1="0%" x2="56.3%" y2="100%">
        <stop offset="14.444444444444446%" stop-color="#d4e1ab" stop-opacity="1"></stop>
        <stop offset="85.55555555555554%" stop-color="#b5d29a" stop-opacity="1"></stop>
    </linearGradient>
</defs>
<defs>
    <linearGradient id="grad2_6" x1="0%" y1="0%" x2="56.3%" y2="100%">
        <stop offset="14.444444444444446%" stop-color="#d4e1ab" stop-opacity="1"></stop>
        <stop offset="85.55555555555554%" stop-color="#f1f1be" stop-opacity="1"></stop>
    </linearGradient>
</defs>
<g transform="translate(960, 0)">
    <path d="M0 486C-62 466.5 -123.9 447.1 -172.2 415.7C-220.5 384.4 -255.1 341.2 -304.1 304.1C-353 266.9 -416.3 235.7 -449 186C-481.7 136.3 -483.9 68.2 -486 0L0 0Z" fill="#e3e9b4">
    </path>
    <path d="M0 416.6C-53.1 399.9 -106.2 383.2 -147.6 356.4C-189 329.5 -218.7 292.5 -260.6 260.6C-302.6 228.7 -356.8 202 -384.9 159.4C-412.9 116.8 -414.7 58.4 -416.6 0L0 0Z" fill="#c5daa2">
    </path>
    <path d="M0 347.1C-44.3 333.2 -88.5 319.3 -123 297C-157.5 274.6 -182.2 243.7 -217.2 217.2C-252.1 190.6 -297.4 168.3 -320.7 132.8C-344.1 97.4 -345.6 48.7 -347.1 0L0 0Z" fill="#a5ca93">
    </path>
    <path d="M0 277.7C-35.4 266.6 -70.8 255.5 -98.4 237.6C-126 219.7 -145.8 195 -173.7 173.7C-201.7 152.5 -237.9 134.7 -256.6 106.3C-275.3 77.9 -276.5 38.9 -277.7 0L0 0Z" fill="#84bb86">
    </path>
    <path d="M0 208.3C-26.6 199.9 -53.1 191.6 -73.8 178.2C-94.5 164.8 -109.3 146.2 -130.3 130.3C-151.3 114.4 -178.4 101 -192.4 79.7C-206.5 58.4 -207.4 29.2 -208.3 0L0 0Z" fill="#5fac7d">
    </path>
    <path d="M0 138.9C-17.7 133.3 -35.4 127.7 -49.2 118.8C-63 109.8 -72.9 97.5 -86.9 86.9C-100.9 76.2 -118.9 67.3 -128.3 53.1C-137.6 38.9 -138.2 19.5 -138.9 0L0 0Z" fill="#329c76">
    </path>
    <path d="M0 69.4C-8.9 66.6 -17.7 63.9 -24.6 59.4C-31.5 54.9 -36.4 48.7 -43.4 43.4C-50.4 38.1 -59.5 33.7 -64.1 26.6C-68.8 19.5 -69.1 9.7 -69.4 0L0 0Z" fill="#009473">
    </path>
</g>
<g transform="translate(0, 540)">
    <path d="M0 -486C44.5 -435.1 89 -384.1 152.7 -368.6C216.4 -353.1 299.3 -373 343.7 -343.7C388 -314.3 393.8 -235.8 411.1 -170.3C428.4 -104.8 457.2 -52.4 486 0L0 0Z" fill="#e3e9b4">
    </path>
    <path d="M0 -416.6C38.1 -372.9 76.3 -329.3 130.9 -316C185.5 -302.7 256.5 -319.7 294.6 -294.6C332.6 -269.4 337.6 -202.1 352.4 -146C367.2 -89.8 391.9 -44.9 416.6 0L0 0Z" fill="#c5daa2">
    </path>
    <path d="M0 -347.1C31.8 -310.8 63.6 -274.4 109.1 -263.3C154.6 -252.2 213.8 -266.4 245.5 -245.5C277.2 -224.5 281.3 -168.4 293.7 -121.6C306 -74.9 326.6 -37.4 347.1 0L0 0Z" fill="#a5ca93">
    </path>
    <path d="M0 -277.7C25.4 -248.6 50.9 -219.5 87.3 -210.6C123.7 -201.8 171 -213.1 196.4 -196.4C221.7 -179.6 225 -134.7 234.9 -97.3C244.8 -59.9 261.3 -29.9 277.7 0L0 0Z" fill="#84bb86">
    </path>
    <path d="M0 -208.3C19.1 -186.5 38.1 -164.6 65.4 -158C92.7 -151.3 128.3 -159.9 147.3 -147.3C166.3 -134.7 168.8 -101 176.2 -73C183.6 -44.9 195.9 -22.5 208.3 0L0 0Z" fill="#5fac7d">
    </path>
    <path d="M0 -138.9C12.7 -124.3 25.4 -109.8 43.6 -105.3C61.8 -100.9 85.5 -106.6 98.2 -98.2C110.9 -89.8 112.5 -67.4 117.5 -48.7C122.4 -29.9 130.6 -15 138.9 0L0 0Z" fill="#329c76">
    </path>
    <path d="M0 -69.4C6.4 -62.2 12.7 -54.9 21.8 -52.7C30.9 -50.4 42.8 -53.3 49.1 -49.1C55.4 -44.9 56.3 -33.7 58.7 -24.3C61.2 -15 65.3 -7.5 69.4 0L0 0Z" fill="#009473">
    </path>
</g>
</svg>