<svg id="visual" viewBox="0 0 675 900" width="675" height="900" xmlns="http://www.w3.org/2000/svg" xmlns:xlink="http://www.w3.org/1999/xlink" version="1.1"><rect x="0" y="0" width="675" height="900" fill="#ebe7ac"></rect><defs><linearGradient id="grad1_0" x1="0%" y1="0%" x2="100%" y2="100%"><stop offset="30%" stop-color="#009473" stop-opacity="1"></stop><stop offset="70%" stop-color="#009473" stop-opacity="1"></stop></linearGradient></defs><defs><linearGradient id="grad1_1" x1="0%" y1="0%" x2="100%" y2="100%"><stop offset="30%" stop-color="#009473" stop-opacity="1"></stop><stop offset="70%" stop-color="#51a577" stop-opacity="1"></stop></linearGradient></defs><defs><linearGradient id="grad1_2" x1="0%" y1="0%" x2="100%" y2="100%"><stop offset="30%" stop-color="#7cb67e" stop-opacity="1"></stop><stop offset="70%" stop-color="#51a577" stop-opacity="1"></stop></linearGradient></defs><defs><linearGradient id="grad1_3" x1="0%" y1="0%" x2="100%" y2="100%"><stop offset="30%" stop-color="#7cb67e" stop-opacity="1"></stop><stop offset="70%" stop-color="#a3c68a" stop-opacity="1"></stop></linearGradient></defs><defs><linearGradient id="grad1_4" x1="0%" y1="0%" x2="100%" y2="100%"><stop offset="30%" stop-color="#c8d799" stop-opacity="1"></stop><stop offset="70%" stop-color="#a3c68a" stop-opacity="1"></stop></linearGradient></defs><defs><linearGradient id="grad1_5" x1="0%" y1="0%" x2="100%" y2="100%"><stop offset="30%" stop-color="#c8d799" stop-opacity="1"></stop><stop offset="70%" stop-color="#ebe7ac" stop-opacity="1"></stop></linearGradient></defs><defs><linearGradient id="grad2_0" x1="0%" y1="0%" x2="100%" y2="100%"><stop offset="30%" stop-color="#009473" stop-opacity="1"></stop><stop offset="70%" stop-color="#009473" stop-opacity="1"></stop></linearGradient></defs><defs><linearGradient id="grad2_1" x1="0%" y1="0%" x2="100%" y2="100%"><stop offset="30%" stop-color="#51a577" stop-opacity="1"></stop><stop offset="70%" stop-color="#009473" stop-opacity="1"></stop></linearGradient></defs><defs><linearGradient id="grad2_2" x1="0%" y1="0%" x2="100%" y2="100%"><stop offset="30%" stop-color="#51a577" stop-opacity="1"></stop><stop offset="70%" stop-color="#7cb67e" stop-opacity="1"></stop></linearGradient></defs><defs><linearGradient id="grad2_3" x1="0%" y1="0%" x2="100%" y2="100%"><stop offset="30%" stop-color="#a3c68a" stop-opacity="1"></stop><stop offset="70%" stop-color="#7cb67e" stop-opacity="1"></stop></linearGradient></defs><defs><linearGradient id="grad2_4" x1="0%" y1="0%" x2="100%" y2="100%"><stop offset="30%" stop-color="#a3c68a" stop-opacity="1"></stop><stop offset="70%" stop-color="#c8d799" stop-opacity="1"></stop></linearGradient></defs><defs><linearGradient id="grad2_5" x1="0%" y1="0%" x2="100%" y2="100%"><stop offset="30%" stop-color="#ebe7ac" stop-opacity="1"></stop><stop offset="70%" stop-color="#c8d799" stop-opacity="1"></stop></linearGradient></defs><g transform="translate(675, 0)"><path d="M0 506.3C-29 476.1 -58 446 -85.6 430.6C-113.2 415.1 -139.4 414.2 -172.6 416.7C-205.8 419.1 -246 424.9 -275.6 412.4C-305.1 399.9 -324.1 369.1 -341.5 341.5C-359 313.9 -374.9 289.5 -399.1 266.7C-423.3 243.9 -455.9 222.7 -467.7 193.7C-479.6 164.7 -470.7 127.8 -473.7 94.2C-476.7 60.6 -491.5 30.3 -506.2 0L0 0Z" fill="#dadfa2"></path><path d="M0 421.9C-24.2 396.8 -48.4 371.7 -71.4 358.8C-94.4 345.9 -116.2 345.2 -143.8 347.2C-171.5 349.3 -205 354.1 -229.6 343.7C-254.3 333.3 -270.1 307.6 -284.6 284.6C-299.1 261.6 -312.4 241.2 -332.6 222.2C-352.8 203.2 -379.9 185.6 -389.8 161.4C-399.6 137.3 -392.3 106.5 -394.8 78.5C-397.2 50.5 -409.6 25.3 -421.9 0L0 0Z" fill="#b6cf91"></path><path d="M0 337.5C-19.3 317.4 -38.7 297.4 -57.1 287C-75.5 276.7 -92.9 276.1 -115.1 277.8C-137.2 279.4 -164 283.3 -183.7 274.9C-203.4 266.6 -216.1 246.1 -227.7 227.7C-239.3 209.3 -249.9 193 -266.1 177.8C-282.2 162.6 -303.9 148.5 -311.8 129.2C-319.7 109.8 -313.8 85.2 -315.8 62.8C-317.8 40.4 -327.6 20.2 -337.5 0L0 0Z" fill="#90be83"></path><path d="M0 253.1C-14.5 238.1 -29 223 -42.8 215.3C-56.6 207.5 -69.7 207.1 -86.3 208.3C-102.9 209.6 -123 212.5 -137.8 206.2C-152.6 200 -162 184.6 -170.8 170.8C-179.5 157 -187.4 144.7 -199.6 133.3C-211.7 121.9 -227.9 111.4 -233.9 96.9C-239.8 82.4 -235.4 63.9 -236.9 47.1C-238.3 30.3 -245.7 15.2 -253.1 0L0 0Z" fill="#67ae7a"></path><path d="M0 168.8C-9.7 158.7 -19.3 148.7 -28.5 143.5C-37.7 138.4 -46.5 138.1 -57.5 138.9C-68.6 139.7 -82 141.6 -91.9 137.5C-101.7 133.3 -108 123 -113.8 113.8C-119.7 104.6 -125 96.5 -133 88.9C-141.1 81.3 -152 74.2 -155.9 64.6C-159.9 54.9 -156.9 42.6 -157.9 31.4C-158.9 20.2 -163.8 10.1 -168.7 0L0 0Z" fill="#359d75"></path><path d="M0 84.4C-4.8 79.4 -9.7 74.3 -14.3 71.8C-18.9 69.2 -23.2 69 -28.8 69.4C-34.3 69.9 -41 70.8 -45.9 68.7C-50.9 66.7 -54 61.5 -56.9 56.9C-59.8 52.3 -62.5 48.2 -66.5 44.4C-70.6 40.6 -76 37.1 -78 32.3C-79.9 27.5 -78.5 21.3 -79 15.7C-79.4 10.1 -81.9 5.1 -84.4 0L0 0Z" fill="#009473"></path></g><g transform="translate(0, 900)"><path d="M0 -506.2C30 -479.7 60.1 -453.1 86.6 -435.5C113.2 -417.8 136.2 -409 171.1 -413C205.9 -416.9 252.4 -433.6 281.3 -420.9C310.1 -408.3 321.1 -366.2 333 -333C345 -299.9 357.7 -275.6 378.3 -252.8C398.9 -229.9 427.3 -208.5 437 -181C446.7 -153.5 437.8 -119.9 446.3 -88.8C454.7 -57.6 480.5 -28.8 506.3 0L0 0Z" fill="#dadfa2"></path><path d="M0 -421.9C25 -399.7 50.1 -377.6 72.2 -362.9C94.3 -348.2 113.5 -340.9 142.5 -344.1C171.6 -347.4 210.4 -361.3 234.4 -350.8C258.4 -340.2 267.6 -305.2 277.5 -277.5C287.5 -249.9 298.1 -229.7 315.3 -210.7C332.4 -191.6 356.1 -173.8 364.2 -150.8C372.3 -127.9 364.9 -100 371.9 -74C378.9 -48 400.4 -24 421.9 0L0 0Z" fill="#b6cf91"></path><path d="M0 -337.5C20 -319.8 40 -302.1 57.7 -290.3C75.4 -278.5 90.8 -272.7 114 -275.3C137.3 -278 168.3 -289.1 187.5 -280.6C206.7 -272.2 214.1 -244.1 222 -222C230 -199.9 238.5 -183.8 252.2 -168.5C265.9 -153.3 284.8 -139 291.3 -120.7C297.8 -102.3 291.9 -80 297.5 -59.2C303.1 -38.4 320.3 -19.2 337.5 0L0 0Z" fill="#90be83"></path><path d="M0 -253.1C15 -239.8 30 -226.6 43.3 -217.7C56.6 -208.9 68.1 -204.5 85.5 -206.5C102.9 -208.5 126.2 -216.8 140.6 -210.5C155 -204.1 160.6 -183.1 166.5 -166.5C172.5 -149.9 178.9 -137.8 189.2 -126.4C199.4 -115 213.6 -104.3 218.5 -90.5C223.4 -76.8 218.9 -60 223.1 -44.4C227.3 -28.8 240.2 -14.4 253.1 0L0 0Z" fill="#67ae7a"></path><path d="M0 -168.7C10 -159.9 20 -151 28.9 -145.2C37.7 -139.3 45.4 -136.3 57 -137.7C68.6 -139 84.1 -144.5 93.8 -140.3C103.4 -136.1 107 -122.1 111 -111C115 -100 119.2 -91.9 126.1 -84.3C133 -76.6 142.4 -69.5 145.7 -60.3C148.9 -51.2 145.9 -40 148.8 -29.6C151.6 -19.2 160.2 -9.6 168.8 0L0 0Z" fill="#359d75"></path><path d="M0 -84.4C5 -79.9 10 -75.5 14.4 -72.6C18.9 -69.6 22.7 -68.2 28.5 -68.8C34.3 -69.5 42.1 -72.3 46.9 -70.2C51.7 -68 53.5 -61 55.5 -55.5C57.5 -50 59.6 -45.9 63.1 -42.1C66.5 -38.3 71.2 -34.8 72.8 -30.2C74.5 -25.6 73 -20 74.4 -14.8C75.8 -9.6 80.1 -4.8 84.4 0L0 0Z" fill="#009473"></path></g></svg>