<svg id="visual" viewBox="0 0 2000 2000" width="2000" height="2000" xmlns="http://www.w3.org/2000/svg" xmlns:xlink="http://www.w3.org/1999/xlink" version="1.1"><rect x="0" y="0" width="2000" height="2000" fill="#fffac6"></rect><defs><linearGradient id="grad1_0" x1="0%" y1="0%" x2="100%" y2="100%"><stop offset="30%" stop-color="#009473" stop-opacity="1"></stop><stop offset="70%" stop-color="#009473" stop-opacity="1"></stop></linearGradient></defs><defs><linearGradient id="grad1_1" x1="0%" y1="0%" x2="100%" y2="100%"><stop offset="30%" stop-color="#009473" stop-opacity="1"></stop><stop offset="70%" stop-color="#47a378" stop-opacity="1"></stop></linearGradient></defs><defs><linearGradient id="grad1_2" x1="0%" y1="0%" x2="100%" y2="100%"><stop offset="30%" stop-color="#6cb180" stop-opacity="1"></stop><stop offset="70%" stop-color="#47a378" stop-opacity="1"></stop></linearGradient></defs><defs><linearGradient id="grad1_3" x1="0%" y1="0%" x2="100%" y2="100%"><stop offset="30%" stop-color="#6cb180" stop-opacity="1"></stop><stop offset="70%" stop-color="#8cc089" stop-opacity="1"></stop></linearGradient></defs><defs><linearGradient id="grad1_4" x1="0%" y1="0%" x2="100%" y2="100%"><stop offset="30%" stop-color="#abce95" stop-opacity="1"></stop><stop offset="70%" stop-color="#8cc089" stop-opacity="1"></stop></linearGradient></defs><defs><linearGradient id="grad1_5" x1="0%" y1="0%" x2="100%" y2="100%"><stop offset="30%" stop-color="#abce95" stop-opacity="1"></stop><stop offset="70%" stop-color="#c8dda3" stop-opacity="1"></stop></linearGradient></defs><defs><linearGradient id="grad1_6" x1="0%" y1="0%" x2="100%" y2="100%"><stop offset="30%" stop-color="#e4ebb3" stop-opacity="1"></stop><stop offset="70%" stop-color="#c8dda3" stop-opacity="1"></stop></linearGradient></defs><defs><linearGradient id="grad1_7" x1="0%" y1="0%" x2="100%" y2="100%"><stop offset="30%" stop-color="#e4ebb3" stop-opacity="1"></stop><stop offset="70%" stop-color="#fffac6" stop-opacity="1"></stop></linearGradient></defs><defs><linearGradient id="grad2_0" x1="0%" y1="0%" x2="100%" y2="100%"><stop offset="30%" stop-color="#009473" stop-opacity="1"></stop><stop offset="70%" stop-color="#009473" stop-opacity="1"></stop></linearGradient></defs><defs><linearGradient id="grad2_1" x1="0%" y1="0%" x2="100%" y2="100%"><stop offset="30%" stop-color="#47a378" stop-opacity="1"></stop><stop offset="70%" stop-color="#009473" stop-opacity="1"></stop></linearGradient></defs><defs><linearGradient id="grad2_2" x1="0%" y1="0%" x2="100%" y2="100%"><stop offset="30%" stop-color="#47a378" stop-opacity="1"></stop><stop offset="70%" stop-color="#6cb180" stop-opacity="1"></stop></linearGradient></defs><defs><linearGradient id="grad2_3" x1="0%" y1="0%" x2="100%" y2="100%"><stop offset="30%" stop-color="#8cc089" stop-opacity="1"></stop><stop offset="70%" stop-color="#6cb180" stop-opacity="1"></stop></linearGradient></defs><defs><linearGradient id="grad2_4" x1="0%" y1="0%" x2="100%" y2="100%"><stop offset="30%" stop-color="#8cc089" stop-opacity="1"></stop><stop offset="70%" stop-color="#abce95" stop-opacity="1"></stop></linearGradient></defs><defs><linearGradient id="grad2_5" x1="0%" y1="0%" x2="100%" y2="100%"><stop offset="30%" stop-color="#c8dda3" stop-opacity="1"></stop><stop offset="70%" stop-color="#abce95" stop-opacity="1"></stop></linearGradient></defs><defs><linearGradient id="grad2_6" x1="0%" y1="0%" x2="100%" y2="100%"><stop offset="30%" stop-color="#c8dda3" stop-opacity="1"></stop><stop offset="70%" stop-color="#e4ebb3" stop-opacity="1"></stop></linearGradient></defs><defs><linearGradient id="grad2_7" x1="0%" y1="0%" x2="100%" y2="100%"><stop offset="30%" stop-color="#fffac6" stop-opacity="1"></stop><stop offset="70%" stop-color="#e4ebb3" stop-opacity="1"></stop></linearGradient></defs><g transform="translate(2000, 0)"><path d="M0 1343.5C-175.7 1318.2 -351.5 1292.9 -507.8 1226C-664.1 1159 -801.1 1050.4 -928.4 928.4C-1055.8 806.4 -1173.6 671.1 -1241.2 514.1C-1308.8 357.2 -1326.2 178.6 -1343.5 0L0 0Z" fill="#f2f3bc"></path><path d="M0 1175.6C-153.8 1153.4 -307.6 1131.3 -444.3 1072.7C-581.1 1014.2 -700.9 919.1 -812.4 812.4C-923.8 705.6 -1026.9 587.2 -1086.1 449.9C-1145.2 312.5 -1160.4 156.3 -1175.6 0L0 0Z" fill="#d6e4ab"></path><path d="M0 1007.6C-131.8 988.7 -263.6 969.7 -380.9 919.5C-498.1 869.3 -600.8 787.8 -696.3 696.3C-791.9 604.8 -880.2 503.3 -930.9 385.6C-981.6 267.9 -994.6 133.9 -1007.6 0L0 0Z" fill="#b9d59c"></path><path d="M0 839.7C-109.8 823.9 -219.7 808.1 -317.4 766.2C-415.1 724.4 -500.7 656.5 -580.3 580.3C-659.9 504 -733.5 419.4 -775.8 321.3C-818 223.2 -828.9 111.6 -839.7 0L0 0Z" fill="#9cc78f"></path><path d="M0 671.8C-87.9 659.1 -175.7 646.5 -253.9 613C-332.1 579.5 -400.5 525.2 -464.2 464.2C-527.9 403.2 -586.8 335.6 -620.6 257.1C-654.4 178.6 -663.1 89.3 -671.8 0L0 0Z" fill="#7cb984"></path><path d="M0 503.8C-65.9 494.3 -131.8 484.9 -190.4 459.7C-249.1 434.6 -300.4 393.9 -348.2 348.2C-395.9 302.4 -440.1 251.7 -465.5 192.8C-490.8 133.9 -497.3 67 -503.8 0L0 0Z" fill="#5aaa7c"></path><path d="M0 335.9C-43.9 329.6 -87.9 323.2 -127 306.5C-166 289.8 -200.3 262.6 -232.1 232.1C-264 201.6 -293.4 167.8 -310.3 128.5C-327.2 89.3 -331.5 44.6 -335.9 0L0 0Z" fill="#2f9b75"></path><path d="M0 167.9C-22 164.8 -43.9 161.6 -63.5 153.2C-83 144.9 -100.1 131.3 -116.1 116.1C-132 100.8 -146.7 83.9 -155.2 64.3C-163.6 44.6 -165.8 22.3 -167.9 0L0 0Z" fill="#009473"></path></g><g transform="translate(0, 2000)"><path d="M0 -1343.5C147.3 -1239.9 294.5 -1136.2 442 -1067.1C589.5 -997.9 737.2 -963.3 881.1 -881.1C1024.9 -798.8 1164.8 -668.9 1241.2 -514.1C1317.7 -359.4 1330.6 -179.7 1343.5 0L0 0Z" fill="#f2f3bc"></path><path d="M0 -1175.6C128.8 -1084.9 257.7 -994.2 386.7 -933.7C515.8 -873.2 645.1 -842.9 770.9 -770.9C896.8 -698.9 1019.2 -585.3 1086.1 -449.9C1153 -314.4 1164.3 -157.2 1175.6 0L0 0Z" fill="#d6e4ab"></path><path d="M0 -1007.6C110.4 -929.9 220.9 -852.2 331.5 -800.3C442.1 -748.5 552.9 -722.5 660.8 -660.8C768.7 -599.1 873.6 -501.7 930.9 -385.6C988.2 -269.5 997.9 -134.8 1007.6 0L0 0Z" fill="#b9d59c"></path><path d="M0 -839.7C92 -774.9 184.1 -710.1 276.2 -666.9C368.4 -623.7 460.8 -602.1 550.7 -550.7C640.6 -499.2 728 -418.1 775.8 -321.3C823.5 -224.6 831.6 -112.3 839.7 0L0 0Z" fill="#9cc78f"></path><path d="M0 -671.8C73.6 -619.9 147.3 -568.1 221 -533.5C294.7 -499 368.6 -481.7 440.5 -440.5C512.4 -399.4 582.4 -334.5 620.6 -257.1C658.8 -179.7 665.3 -89.8 671.8 0L0 0Z" fill="#7cb984"></path><path d="M0 -503.8C55.2 -464.9 110.4 -426.1 165.7 -400.2C221.1 -374.2 276.5 -361.2 330.4 -330.4C384.3 -299.5 436.8 -250.8 465.5 -192.8C494.1 -134.8 499 -67.4 503.8 0L0 0Z" fill="#5aaa7c"></path><path d="M0 -335.9C36.8 -310 73.6 -284.1 110.5 -266.8C147.4 -249.5 184.3 -240.8 220.3 -220.3C256.2 -199.7 291.2 -167.2 310.3 -128.5C329.4 -89.8 332.6 -44.9 335.9 0L0 0Z" fill="#2f9b75"></path><path d="M0 -167.9C18.4 -155 36.8 -142 55.2 -133.4C73.7 -124.7 92.2 -120.4 110.1 -110.1C128.1 -99.8 145.6 -83.6 155.2 -64.3C164.7 -44.9 166.3 -22.5 167.9 0L0 0Z" fill="#009473"></path></g></svg>